<?xml version="1.0" encoding="UTF-8"?>
<svg id="a" data-name="Layer 1" xmlns="http://www.w3.org/2000/svg" width="899.405" height="150" viewBox="0 0 899.405 150">
  <path d="M618.934,130.832c-2.022,6.869-8.327,11.585-15.488,11.585s-13.465-4.716-15.488-11.585L549.488.169h-45.465l36.331,123.396c4.582,15.562,18.866,26.247,35.088,26.247h56.009c16.222,0,30.506-10.685,35.088-26.247L702.87.169h-45.465l-38.471,130.664Z" fill="#fff"></path>
  <path d="M721.244,104.95c0,24.788,20.094,44.882,44.882,44.882h133.279v-20.295h-109.103c-13.026,0-23.586-10.56-23.586-23.586v-20.802h120.569v-20.295h-120.569V20.464h132.689V.169h-178.161v104.781Z" fill="#fff"></path>
  <path d="M274.071,0l-23.448,132.646c-.998,5.647-5.905,9.763-11.64,9.763h-.515c-6.142,0-11.261-4.705-11.778-10.825l-8.407-99.538C216.752,13.927,201.599,0,183.417,0h-47.192c-18.183,0-33.336,13.927-34.866,32.045l-8.407,99.538c-.517,6.121-5.636,10.825-11.778,10.825h-.569c-5.734,0-10.641-4.116-11.64-9.763L45.516,0H0l21.374,120.912c2.955,16.716,17.481,28.899,34.456,28.899h48.939c18.183,0,33.336-13.927,34.866-32.045l8.407-99.539c.517-6.121,5.636-10.825,11.778-10.825s11.261,4.705,11.778,10.825l8.407,99.539c1.531,18.118,16.683,32.045,34.866,32.045h48.886c16.975,0,31.501-12.183,34.456-28.899L319.588,0h-45.517Z" fill="#fff"></path>
  <path d="M443.868,0h-58.583c-15.538,0-29.219,10.234-33.608,25.139l-36.762,124.861h45.574l13.098-44.489h81.977l13.099,44.489h45.574l-36.762-124.861c-4.388-14.905-18.07-25.139-33.608-25.139ZM379.577,85.171l19.475-66.146c2.027-6.885,8.347-11.613,15.525-11.613s13.497,4.727,15.525,11.613l19.475,66.146h-70Z" fill="#fff"></path>
</svg>