<?xml version="1.0" encoding="UTF-8"?>
<svg id="a" data-name="Layer 1" xmlns="http://www.w3.org/2000/svg" width="1573.776" height="150" viewBox="0 0 1573.776 150">
  <path d="M962.265,33.917c-4.182-3.182-10.366-4.455-16.277-5.455l-7.184-1.184c-5.82-.999-9.365-1.453-12.456-2.726-2.001-.819-4.912-2.183-4.912-6.002,0-1.638.545-4.638,4.821-6.73,2.909-1.453,6.365-1.818,9.547-1.818,3.728,0,7.912.365,10.82,1.909,4.002,2.092,4.821,5.001,4.912,7.458h14.365c0-3.73-.725-10.732-9.002-15.37-1.453-.817-7.455-3.999-20.733-3.999-6.365,0-14.094.728-20.276,4.547-6.002,3.728-8.64,8.82-8.64,15.367,0,5.001,1.727,8.366,4.275,10.638,3.819,3.456,10.547,4.821,19.731,6.456l8.183,1.456c5.003.91,8.003,1.638,10.275,2.911,2.82,1.544,4.093,3.636,4.093,6.365,0,2.181-.819,5.274-4.729,7.275-3,1.544-7.818,1.909-11.274,1.909-3.819,0-9.002-.636-12.093-2.457-4.275-2.546-4.821-6.274-4.821-9.002v-.363h-14.639v.271c0,6.547,1.818,14.368,11.094,18.643,5.181,2.363,11.911,3.274,22.186,3.274,7.184,0,14.642-.548,20.096-3.821,4.364-2.635,8.64-7.638,8.64-16.549,0-4.093-.91-9.093-6.002-13.004Z" fill="#fff"></path>
  <path d="M988.551,60.015c2.092,2.817,4.547,4.364,6.367,5.183,3.363,1.544,7.455,1.909,11.911,1.909,5.457,0,12.185-.636,17.642-6.002,4.182-4.093,6.73-10.275,6.73-19.095,0-5.366-1.002-12.824-6.639-18.187-5.274-5.001-12.55-6.002-18.187-6.002-3.548,0-7.638.365-11.548,2.275-2.366,1.182-4.638,2.909-6.547,5.455h-.274v-6.182h-12.639v63.015h13.184v-22.369ZM992.826,30.006c3.091-3,7.093-3.636,9.73-3.636s7.184.363,10.638,4.093c3.365,3.636,3.91,8.454,3.91,11.728,0,3.548-.545,8.457-3.91,12.187-3.182,3.636-6.91,4.182-10.275,4.182-3.274,0-7.273-.545-10.547-3.91-1.456-1.456-4.184-5.183-4.184-12.185,0-5.728,2.092-10.004,4.638-12.458Z" fill="#fff"></path>
  <path d="M1043.393,60.923c6.365,5.366,15.093,6.367,21.369,6.367,6.365,0,14.913-1.002,21.278-6.367,3.545-3,7.912-8.728,7.912-18.458,0-8.731-3.365-14.639-7.912-18.458-6.365-5.366-14.822-6.367-21.278-6.367-6.276,0-15.004,1.002-21.369,6.367-3.456,2.909-7.912,8.546-7.912,18.458,0,9.73,4.364,15.458,7.912,18.458ZM1054.213,30.006c3.182-3.091,7.367-3.819,10.549-3.819,3.274,0,7.273.545,10.547,3.819,3.094,3.091,4.547,7.82,4.547,12.367s-1.453,9.456-4.547,12.55c-2.272,2.272-5.637,3.819-10.547,3.819-3.456,0-7.367-.728-10.549-3.819-2.729-2.637-4.638-7.001-4.638-12.55,0-5.455,2.001-9.821,4.638-12.367Z" fill="#fff"></path>
  <path d="M1134.421,28.006v-9.639h-1.547c-4.547,0-8.637.545-11.911,2.092-2.637,1.273-5.274,3.456-7.184,6.91h-.183v-8.001h-12.73v46.193h13.184v-18.096c0-6.456,1.002-11.548,4.547-15.093,3.91-3.821,9.641-4.367,15.096-4.367h.728Z" fill="#fff"></path>
  <path d="M1146.43,53.194c0,3.91.18,7.729,3.091,10.458,3.091,2.911,7.729,3.274,10.912,3.274,4.093,0,7.184-.454,10.184-1.456v-8.637c-2.363.728-4.364.817-5.001.817-1.909,0-3.91-.454-4.821-1.544-.817-.91-1.182-2.729-1.182-5.637v-22.734h10.823v-8.366h-10.823V5.637h-13.184v13.731h-9.913v8.366h9.913v25.46Z" fill="#fff"></path>
  <path d="M1197.172,67.379c7.549,0,16.095-.363,20.824-5.546,1.727-1.909,3.456-5.001,3.456-9.547,0-3.819-1.273-7.093-4.275-9.459-2.909-2.272-7.093-3.274-11.639-4.09l-6.274-1.093c-5.274-.908-8.274-1.273-10.366-2.272-1.636-.728-2.729-1.818-2.729-3.636,0-1.638.819-3.365,2.729-4.547,1.638-1.002,3.819-1.456,6.821-1.456,1.909,0,5.363.183,7.638,1.364,2.181,1.182,2.909,2.637,2.909,4.547v.091h13.095c-.091-3.91-1.182-8.64-7.458-11.639-3.999-1.909-10.184-2.548-15.821-2.548-8.366,0-13.095,1.456-16.186,3.185-5.728,3.274-7.001,8.001-7.001,11.639,0,5.455,2.909,8.546,5.637,10.093,2.001,1.182,5.092,2.001,11.822,3.091l5.637.91c5.82.908,7.729,1.727,8.094,1.909,1.909.819,3.363,2.181,3.363,4.547,0,1.09-.271,3.274-3.091,4.638-1.09.545-3.091,1.09-7.547,1.09-5.183,0-7.275-1.002-8.186-1.456-3-1.636-3.363-4.182-3.363-5.546v-.183h-13.095v.274c0,2.546.363,6.728,3.819,10.184,5.001,5.092,14.277,5.455,21.187,5.455Z" fill="#fff"></path>
  <polygon points="923.685 121.476 959.566 121.476 959.566 111.07 923.685 111.07 923.685 96.091 965.218 96.091 965.218 85.505 909.784 85.505 909.784 148.295 966.293 148.295 966.293 137.712 923.685 137.712 923.685 121.476" fill="#fff"></polygon>
  <path d="M1000.906,101.113c-3.498,0-7.445.449-10.855,2.154-.718.358-3.767,1.882-6.728,5.292v-5.832h-12.557v45.568h13.006v-21.619c0-3.856.538-9.597,4.305-13.364,2.154-2.154,5.383-3.409,8.881-3.409,3.229,0,6.098,1.167,7.803,3.049,2.243,2.603,2.331,6.55,2.331,9.599v25.743h13.009v-29.333c0-4.305-.36-8.879-4.216-12.826-4.216-4.305-10.226-5.023-14.98-5.023Z" fill="#fff"></path>
  <path d="M1048.253,138.967c-.807-.898-1.167-2.692-1.167-5.563v-22.425h10.675v-8.252h-10.675v-13.544h-13.006v13.544h-9.777v8.252h9.777v25.117c0,3.858.18,7.626,3.049,10.315,3.052,2.872,7.626,3.229,10.766,3.229,4.036,0,7.085-.447,10.046-1.433v-8.521c-2.334.715-4.305.807-4.934.807-1.885,0-3.856-.449-4.754-1.525Z" fill="#fff"></path>
  <path d="M1087.893,101.025c-5.383,0-14.622.538-21.081,6.905-3.587,3.498-6.728,9.15-6.728,18.3,0,8.61,3.052,14.171,6.459,17.4,6.01,5.652,15.071,6.37,21.887,6.37,9.059,0,13.275-.987,15.698-1.885,6.279-2.243,10.226-7.445,10.944-14.082h-13.186c-.36,1.974-1.345,4.485-4.396,6.01-2.42,1.256-6.367,1.525-8.879,1.525-1.794,0-6.728-.18-9.957-2.331-3.141-2.065-5.203-6.279-5.023-11.033h42.159v-.987c0-5.114.089-13.009-6.19-19.196-6.547-6.459-16.684-6.996-21.707-6.996ZM1073.72,121.027c.36-3.858,2.243-6.908,4.396-8.701,2.6-2.154,6.279-3.049,9.866-3.049,3.947,0,8.163,1.076,10.675,3.318,1.974,1.705,3.587,4.754,3.678,8.432h-28.615Z" fill="#fff"></path>
  <path d="M1142.414,103.805c-2.6,1.256-5.203,3.407-7.085,6.816h-.18v-7.894h-12.557v45.568h13.006v-17.851c0-6.367.987-11.39,4.485-14.888,3.856-3.767,9.508-4.305,14.891-4.305h.715v-9.51h-1.525c-4.485,0-8.521.54-11.75,2.065Z" fill="#fff"></path>
  <path d="M1181.694,138.967c-.807-.898-1.167-2.692-1.167-5.563v-22.425h10.675v-8.252h-10.675v-13.544h-13.006v13.544h-9.777v8.252h9.777v25.117c0,3.858.18,7.626,3.049,10.315,3.052,2.872,7.626,3.229,10.766,3.229,4.036,0,7.085-.447,10.046-1.433v-8.521c-2.334.715-4.305.807-4.934.807-1.885,0-3.856-.449-4.754-1.525Z" fill="#fff"></path>
  <path d="M1244.835,139.236c-.807-.987-.807-2.872-.807-4.576v-17.58c0-3.049-.449-7.265-3.856-10.584-4.576-4.485-14.264-5.563-20.094-5.563-6.279,0-15.518.987-20.272,5.472-2.062,1.974-4.305,5.383-4.127,10.406h12.917c-.089-3.141,1.525-4.934,3.318-5.921.18-.089,2.783-1.525,7.983-1.525,2.243,0,5.383.358,7.714,1.436,2.243,1.076,3.409,2.511,3.409,5.023,0,.898-.18,2.062-1.167,2.96-1.345,1.256-4.036,1.794-9.688,2.331l-3.587.36c-3.049.269-6.19.447-9.866,1.164-3.409.718-6.459,1.705-8.97,4.305-2.243,2.334-3.321,5.114-3.321,8.612,0,5.472,2.603,8.701,5.023,10.495,4.127,3.049,10.226,3.318,13.904,3.318,6.996,0,10.586-1.256,11.301-1.525,1.078-.358,4.485-1.794,7.626-5.203.269,1.436,1.076,3.321,3.498,4.665,2.062,1.167,4.485,1.256,6.996,1.256,2.331,0,3.856-.089,6.01-.538v-8.072c-.449.178-.987.269-1.613.269-.54,0-1.616-.091-2.334-.987ZM1231.022,126.768c0,4.754-1.167,8.879-4.843,11.75-3.141,2.423-6.728,2.78-9.599,2.78-1.882,0-4.574-.18-6.547-1.705-1.436-1.076-2.154-2.511-2.154-4.216,0-1.882.629-3.498,2.423-4.663,1.794-1.167,4.305-1.527,7.265-1.796l4.127-.358c2.062-.18,4.036-.358,6.187-.898,1.167-.269,2.065-.538,3.141-1.433v.538Z" fill="#fff"></path>
  <rect x="1254.6" y="85.058" width="13.364" height="9.597" fill="#fff"></rect>
  <rect x="1254.78" y="102.727" width="13.006" height="45.568" fill="#fff"></rect>
  <path d="M1307.517,101.113c-3.498,0-7.445.449-10.855,2.154-.718.358-3.767,1.882-6.728,5.292v-5.832h-12.557v45.568h13.006v-21.619c0-3.856.538-9.597,4.305-13.364,2.154-2.154,5.383-3.409,8.881-3.409,3.229,0,6.098,1.167,7.803,3.049,2.243,2.603,2.331,6.55,2.331,9.599v25.743h13.009v-29.333c0-4.305-.36-8.879-4.216-12.826-4.216-4.305-10.226-5.023-14.98-5.023Z" fill="#fff"></path>
  <path d="M1398.279,101.025c-4.127,0-7.714.807-11.124,2.689-3.049,1.705-5.2,3.858-6.728,6.19-.807-1.974-2.42-4.663-5.649-6.547-3.229-1.885-6.819-2.331-9.868-2.331-3.587,0-7.085.627-10.315,2.42-1.794.987-4.216,2.78-6.279,5.741v-6.459h-12.199v45.568h13.006v-25.206c0-4.665,1.705-7.714,3.318-9.597,1.974-2.243,5.023-3.678,8.432-3.678,2.243,0,4.574.718,6.19,2.151,2.96,2.692,3.138,6.908,3.138,9.419v26.91h13.009v-25.835c0-3.587,1.613-7.534,3.856-9.777,1.525-1.525,3.947-2.869,7.534-2.869,3.318,0,5.652,1.256,7.088,2.78,2.243,2.423,2.6,5.921,2.6,8.521v27.179h13.006v-27.806c0-3.858-.449-11.035-5.381-15.34-3.229-2.78-8.524-4.125-13.635-4.125Z" fill="#fff"></path>
  <path d="M1451.902,101.025c-5.383,0-14.622.538-21.081,6.905-3.587,3.498-6.728,9.15-6.728,18.3,0,8.61,3.052,14.171,6.459,17.4,6.01,5.652,15.071,6.37,21.887,6.37,9.059,0,13.275-.987,15.698-1.885,6.279-2.243,10.226-7.445,10.944-14.082h-13.186c-.36,1.974-1.345,4.485-4.396,6.01-2.42,1.256-6.367,1.525-8.879,1.525-1.794,0-6.728-.18-9.957-2.331-3.141-2.065-5.203-6.279-5.023-11.033h42.159v-.987c0-5.114.089-13.009-6.19-19.196-6.547-6.459-16.684-6.996-21.707-6.996ZM1437.729,121.027c.36-3.858,2.243-6.908,4.396-8.701,2.6-2.154,6.279-3.049,9.866-3.049,3.947,0,8.163,1.076,10.675,3.318,1.974,1.705,3.587,4.754,3.678,8.432h-28.615Z" fill="#fff"></path>
  <path d="M1516.741,101.113c-3.498,0-7.445.449-10.855,2.154-.718.358-3.767,1.882-6.728,5.292v-5.832h-12.557v45.568h13.006v-21.619c0-3.856.538-9.597,4.305-13.364,2.154-2.154,5.383-3.409,8.881-3.409,3.229,0,6.098,1.167,7.803,3.049,2.243,2.603,2.331,6.55,2.331,9.599v25.743h13.009v-29.333c0-4.305-.36-8.879-4.216-12.826-4.216-4.305-10.226-5.023-14.98-5.023Z" fill="#fff"></path>
  <path d="M1568.842,140.492c-1.885,0-3.856-.449-4.754-1.525-.807-.898-1.167-2.692-1.167-5.563v-22.425h10.675v-8.252h-10.675v-13.544h-13.006v13.544h-9.777v8.252h9.777v25.117c0,3.858.18,7.626,3.049,10.315,3.052,2.872,7.626,3.229,10.766,3.229,4.036,0,7.085-.447,10.046-1.433v-8.521c-2.334.715-4.305.807-4.934.807Z" fill="#fff"></path>
  <path d="M1240.592,46.718c0,12.708,8.679,19.995,23.814,19.995,7.364,0,13.82-2.852,18.695-8.255l6.325,7.46.096.111h13.872l-14.338-15.939c3.126-6.858,4.645-15.394,4.645-26.084v-.316h-10.714v.316c0,7.152-.587,13.327-1.702,17.92l-24.628-29.745h29.997V2.738h-42.24v11.102l12.187,14.871c-6.205,1.547-16.009,5.906-16.009,18.007ZM1251.797,46.718c0-7.12,6.217-9.449,11.506-10.139l13.507,15.429c-2.96,3.298-7.265,4.971-12.796,4.971-7.877,0-12.217-3.644-12.217-10.26Z" fill="#fff"></path>
  <path d="M598.457,129.281c-1.955,6.642-8.052,11.202-14.975,11.202s-13.02-4.56-14.975-11.202L531.308,2.94h-43.961l35.129,119.313c4.43,15.047,18.242,25.378,33.927,25.378h54.156c15.685,0,29.497-10.331,33.927-25.378L679.616,2.94h-43.961l-37.198,126.341Z" fill="#fff"></path>
  <path d="M697.382,104.255c0,23.967,19.43,43.397,43.397,43.397h128.87v-19.624h-105.493c-12.595,0-22.806-10.211-22.806-22.806v-20.114h116.58v-19.624h-116.58V22.564h128.299V2.94h-172.266v101.315Z" fill="#fff"></path>
  <path d="M265.003,2.777l-22.673,128.258c-.965,5.46-5.71,9.44-11.255,9.44h-.498c-5.939,0-10.889-4.549-11.389-10.467l-8.129-96.245c-1.48-17.519-16.131-30.985-33.713-30.985h-45.631c-17.581,0-32.233,13.466-33.713,30.985l-8.129,96.245c-.5,5.918-5.45,10.467-11.389,10.467h-.55c-5.545,0-10.289-3.98-11.255-9.44L44.01,2.777H0l20.667,116.912c2.857,16.163,16.903,27.943,33.316,27.943h47.32c17.581,0,32.233-13.466,33.713-30.985l8.129-96.245c.5-5.918,5.45-10.467,11.389-10.467s10.889,4.549,11.389,10.467l8.129,96.245c1.48,17.519,16.131,30.985,33.713,30.985h47.268c16.413,0,30.459-11.78,33.316-27.943L309.014,2.777h-44.011Z" fill="#fff"></path>
  <path d="M429.183,2.777h-56.645c-15.024,0-28.252,9.896-32.496,24.307l-35.546,120.73h44.066l12.665-43.017h79.265l12.665,43.017h44.066l-35.546-120.73c-4.243-14.412-17.472-24.307-32.496-24.307ZM367.019,85.13l18.831-63.958c1.96-6.657,8.071-11.229,15.011-11.229s13.051,4.571,15.011,11.229l18.831,63.958h-67.684Z" fill="#fff"></path>
</svg>